<svg width="67" height="67" viewBox="0 0 67 67" fill="none" xmlns="http://www.w3.org/2000/svg">
<path d="M50.1914 50.1914C59.4314 40.9514 59.4314 25.9705 50.1914 16.7305C40.9514 7.49049 25.9704 7.49049 16.7305 16.7305C7.49049 25.9704 7.49049 40.9514 16.7305 50.1914C25.9704 59.4314 40.9514 59.4314 50.1914 50.1914Z" fill="#AAB6F9"/>
<path d="M57.4261 39.3905L40.3045 41.1254C39.4317 41.2138 38.6521 40.578 38.5637 39.7047L36.8291 22.5831C36.7407 21.7103 37.3765 20.9307 38.2498 20.8423L55.3714 19.1077C56.2443 19.0193 57.0238 19.6551 57.1122 20.5284L58.8468 37.65C58.9352 38.5228 58.299 39.302 57.4261 39.3905Z" fill="#FFBB22"/>
<path d="M32.2272 31.8057L14.8643 31.8116C13.9789 31.812 13.2612 31.0946 13.2609 30.2092L13.2549 12.8464C13.2546 11.9609 13.9719 11.2432 14.8573 11.2429L32.2202 11.2369C33.1056 11.2366 33.8233 11.9539 33.8236 12.8394L33.8296 30.2022C33.8299 31.0873 33.1126 31.8053 32.2272 31.8057Z" fill="#FF3636"/>
<path d="M36.0976 55.4362L18.7791 55.4422C17.8961 55.4425 17.1799 54.727 17.1799 53.8439L17.1739 36.5255C17.1736 35.6425 17.8891 34.9266 18.7722 34.9262L36.0906 34.9203C36.9736 34.9199 37.6895 35.6355 37.6899 36.5185L37.6958 53.8369C37.6962 54.72 36.9806 55.4359 36.0976 55.4362Z" fill="#3939FF"/>
<path d="M33.1134 46.9769C33.1134 46.9769 30.327 39.4825 30.3238 39.4748C30.1679 39.0902 29.7998 38.842 29.3859 38.842H29.3849C28.9706 38.8424 28.6025 39.0916 28.4473 39.4769C28.4449 39.4832 25.634 46.9748 25.634 46.9748C25.4704 47.4107 25.6913 47.8966 26.1272 48.0599C26.2248 48.0966 26.3247 48.1137 26.4233 48.1137C26.7645 48.1137 27.0857 47.905 27.2126 47.5666L27.7062 46.2508H31.045L31.5333 47.5645C31.6955 48.0008 32.1807 48.2231 32.617 48.0609C33.0533 47.8987 33.2756 47.4135 33.1134 46.9769ZM28.3386 44.5652L29.3831 41.7809L30.4182 44.5652H28.3386Z" fill="white"/>
<path d="M26.0038 36.7354C26.0038 36.2698 25.6262 35.8926 25.1609 35.8926H22.6322C22.1665 35.8926 21.7893 36.2698 21.7893 36.7354V39.2642C21.7893 39.7298 22.1669 40.107 22.6322 40.107C23.0978 40.107 23.475 39.7298 23.475 39.2642V37.5786H25.1606C25.6266 37.5782 26.0038 37.201 26.0038 36.7354Z" fill="#0B103F"/>
<path d="M36.1175 46.8495C35.6518 46.8495 35.2747 47.2267 35.2747 47.6923V49.3779H33.589C33.1234 49.3779 32.7462 49.7551 32.7462 50.2207C32.7462 50.6864 33.1234 51.0636 33.589 51.0636H36.1178C36.5835 51.0636 36.9606 50.686 36.9606 50.2207V47.6919C36.9606 47.227 36.5831 46.8495 36.1175 46.8495Z" fill="#0B103F"/>
<path d="M20.1022 19.0352V17.3496H21.7878C22.2534 17.3496 22.6306 16.9724 22.6306 16.5068C22.6306 16.0411 22.2534 15.6639 21.7878 15.6639H19.2594C18.7937 15.6639 18.4165 16.0411 18.4165 16.5068V19.0355C18.4165 19.5012 18.7937 19.8784 19.2594 19.8784C19.725 19.8784 20.1022 19.5008 20.1022 19.0352Z" fill="#0B103F"/>
<path d="M29.7956 30.8351H32.3241C32.7897 30.8351 33.1669 30.458 33.1669 29.9923V27.4635C33.1669 26.9979 32.7897 26.6207 32.3241 26.6207C31.8584 26.6207 31.4813 26.9979 31.4813 27.4635V29.1492H29.7956C29.33 29.1492 28.9528 29.5264 28.9528 29.992C28.9525 30.4576 29.33 30.8351 29.7956 30.8351Z" fill="#0B103F"/>
<path d="M23.6863 27.8847H23.6902C23.7105 27.8847 25.7261 27.8756 26.2777 27.8756C27.8697 27.8756 29.1648 26.5815 29.1648 24.991C29.1648 24.0503 28.7118 23.2134 28.0123 22.6866C28.3084 22.2657 28.4828 21.7539 28.4828 21.2016C28.4828 19.7743 27.3205 18.6134 25.8925 18.6134H23.6863C23.2207 18.6134 22.8435 18.9906 22.8435 19.4562V27.0422C22.8435 27.2663 22.933 27.4813 23.0917 27.6397C23.2494 27.7963 23.4633 27.8847 23.6863 27.8847ZM26.2777 26.19C25.9589 26.19 25.1577 26.1928 24.5292 26.1956V23.7944C24.7127 23.7937 24.9081 23.793 25.0948 23.7923H26.2777C26.9401 23.7923 27.4792 24.3303 27.4792 24.9913C27.4792 25.652 26.9401 26.19 26.2777 26.19ZM25.8925 20.2987C26.3913 20.2987 26.7972 20.7035 26.7972 21.2013C26.7972 21.6991 26.3913 22.1039 25.8925 22.1039C25.7303 22.1039 25.4251 22.1046 25.0923 22.106H24.5292V20.2987H25.8925Z" fill="white"/>
<path d="M42.4535 25.7599C42.413 25.296 42.005 24.9531 41.5404 24.9936L39.0214 25.2138C38.5576 25.2544 38.2146 25.6634 38.2552 26.1269L38.4754 28.6459C38.5139 29.0846 38.919 29.4139 39.3514 29.4139C39.8153 29.3734 40.1957 28.963 40.1548 28.4991L40.0079 26.8198L41.6873 26.6729C42.1508 26.6324 42.4941 26.2238 42.4535 25.7599Z" fill="#0B103F"/>
<path d="M54.5465 38.2402L54.3262 35.7212C54.2857 35.2577 53.876 34.9148 53.4132 34.955C52.9493 34.9955 52.6064 35.4045 52.6469 35.8681L52.7937 37.5474L51.1144 37.6942C50.6509 37.7348 50.3076 38.1438 50.3481 38.6073C50.3866 39.046 50.7285 39.376 51.2241 39.3753L53.7802 39.1533C54.2441 39.1124 54.587 38.7038 54.5465 38.2402Z" fill="#0B103F"/>
<path d="M47.0309 29.3734C47.5791 29.3255 48.123 29.4489 48.6047 29.7303C49.0067 29.9652 49.5227 29.8296 49.7576 29.4279C49.9925 29.0259 49.8569 28.51 49.4552 28.275C48.6704 27.8164 47.7815 27.6158 46.8841 27.6944C45.6893 27.7989 44.6102 28.3824 43.8464 29.3374C43.0916 30.2805 42.7351 31.4754 42.8424 32.7017C42.9497 33.9279 43.5083 35.0424 44.4151 35.8405C45.2349 36.5616 46.2504 36.9475 47.3092 36.9475C47.4361 36.9475 47.5637 36.9419 47.692 36.9308C48.6771 36.8448 49.53 36.4298 50.1585 35.7317C50.2805 35.5961 50.3949 35.4486 50.4983 35.293C50.7563 34.9057 50.6514 34.3824 50.2641 34.1244C49.8768 33.8664 49.3535 33.9709 49.0955 34.3586C49.0371 34.4464 48.9732 34.5289 48.9053 34.604C48.5628 34.9847 48.1052 35.2025 47.5448 35.2514C46.8135 35.3154 46.0972 35.0752 45.5285 34.5747C44.9486 34.0643 44.5909 33.347 44.5217 32.5545C44.4525 31.762 44.6801 30.9937 45.1625 30.3903C45.6358 29.7985 46.2993 29.4374 47.0309 29.3734Z" fill="white"/>
<path d="M56.4777 30.4592C56.9433 30.4592 57.3205 30.8368 57.3205 31.302C57.3205 31.7677 56.9433 32.1449 56.4777 32.1449C56.0121 32.1449 55.6349 31.7673 55.6349 31.302C55.6349 30.8368 56.0124 30.4592 56.4777 30.4592Z" fill="#0B103F"/>
<path d="M58.1995 41.3046L57.6493 35.0074C57.6308 34.7959 57.534 34.6012 57.377 34.4579C57.2033 34.2995 56.9708 34.2202 56.7355 34.2412C56.5115 34.2604 56.308 34.3667 56.1633 34.5386C56.0182 34.7113 55.9501 34.9298 55.9693 35.1539L56.4472 40.6114L37.9737 42.2281L36.358 23.7558L54.8307 22.139L55.3086 27.5965C55.3271 27.808 55.4233 28.0038 55.5799 28.146C55.7536 28.3044 55.9871 28.3838 56.2213 28.3635C56.6838 28.3222 57.0278 27.9125 56.9876 27.4497L56.4363 21.1525C56.4178 20.9316 56.3091 20.7226 56.1388 20.5803C55.9686 20.438 55.7435 20.3671 55.5236 20.3863L36.9624 22.0097V13.1344C36.9624 12.6688 36.5853 12.2916 36.1196 12.2916H15.8903C15.4247 12.2916 15.0475 12.6688 15.0475 13.1344V33.3634C15.0475 33.829 15.4247 34.2062 15.8903 34.2062H18.4191V53.5923C18.4191 54.058 18.7963 54.4351 19.2619 54.4351H39.4909C39.9562 54.4351 40.3337 54.0576 40.3337 53.5923V43.7131L57.4333 42.2177C57.6542 42.1984 57.8633 42.0894 58.0055 41.9191C58.1482 41.7496 58.2191 41.5255 58.1995 41.3046ZM16.7331 13.9776H35.2765V22.1631C34.8622 22.247 34.5672 22.6312 34.6046 23.0629L35.2765 30.7406V32.5209H16.7331V13.9776ZM38.6484 52.7499H20.1051V34.2065H35.5802L36.3685 43.2143C36.3877 43.4359 36.4965 43.6443 36.666 43.7865C36.8177 43.9138 37.0107 43.9837 37.2096 43.9837C37.2334 43.9837 37.2575 43.983 37.2812 43.9802L38.6484 43.8606V52.7499Z" fill="#0B103F"/>
</svg>
