<svg width="40" height="40" viewBox="0 0 40 40" fill="none" xmlns="http://www.w3.org/2000/svg">
<path d="M30 27.5H7.5C6.75 27.5 6.25 28 6.25 28.75V35C6.25 35.75 6.75 36.25 7.5 36.25H30C30.75 36.25 31.25 35.75 31.25 35V28.75C31.25 28 30.75 27.5 30 27.5Z" stroke="white" stroke-width="2" stroke-miterlimit="10" stroke-linecap="round" stroke-linejoin="round"/>
<path d="M12.5 27.5H7.5V25C7.5 24.25 8 23.75 8.75 23.75H11.25C12 23.75 12.5 24.25 12.5 25V27.5Z" stroke="white" stroke-width="2" stroke-miterlimit="10" stroke-linecap="round" stroke-linejoin="round"/>
<path d="M31.25 18.75H17.5C16.75 18.75 16.25 19.25 16.25 20V26.25C16.25 27 16.75 27.5 17.5 27.5H31.25C32 27.5 32.5 27 32.5 26.25V20C32.5 19.25 32 18.75 31.25 18.75Z" stroke="white" stroke-width="2" stroke-miterlimit="10" stroke-linecap="round" stroke-linejoin="round"/>
<path d="M31.25 18.75H26.25V16.25C26.25 15.5 26.75 15 27.5 15H30C30.75 15 31.25 15.5 31.25 16.25V18.75Z" stroke="white" stroke-width="2" stroke-miterlimit="10" stroke-linecap="round" stroke-linejoin="round"/>
<path d="M21.25 10H7.5C6.75 10 6.25 10.5 6.25 11.25V17.5C6.25 18.25 6.75 18.75 7.5 18.75H21.25C22 18.75 22.5 18.25 22.5 17.5V11.25C22.5 10.5 22 10 21.25 10Z" stroke="white" stroke-width="2" stroke-miterlimit="10" stroke-linecap="round" stroke-linejoin="round"/>
<path d="M12.5 10H7.5V7.5C7.5 6.75 8 6.25 8.75 6.25H11.25C12 6.25 12.5 6.75 12.5 7.5V10Z" stroke="white" stroke-width="2" stroke-miterlimit="10" stroke-linecap="round" stroke-linejoin="round"/>
<path d="M21.25 10H16.25V7.5C16.25 6.75 16.75 6.25 17.5 6.25H20C20.75 6.25 21.25 6.75 21.25 7.5V10Z" stroke="white" stroke-width="2" stroke-miterlimit="10" stroke-linecap="round" stroke-linejoin="round"/>
</svg>
