<svg width="40" height="40" viewBox="0 0 40 40" fill="none" xmlns="http://www.w3.org/2000/svg">
<path d="M20 35C28.2843 35 35 28.2843 35 20C35 11.7157 28.2843 5 20 5C11.7157 5 5 11.7157 5 20C5 28.2843 11.7157 35 20 35Z" stroke="white" stroke-width="2" stroke-miterlimit="10" stroke-linecap="round" stroke-linejoin="round"/>
<path d="M27.0708 27.0709C32.9286 21.2131 34.5115 13.2986 30.6063 9.3934C26.7011 5.4882 18.7866 7.07109 12.9288 12.9289C7.07096 18.7867 5.48806 26.7012 9.39327 30.6064C13.2985 34.5116 21.213 32.9287 27.0708 27.0709Z" stroke="white" stroke-width="2" stroke-miterlimit="10" stroke-linecap="round" stroke-linejoin="round"/>
<path d="M22.6514 22.6516C28.5092 16.7938 32.0707 10.8579 30.6063 9.39346C29.1418 7.92901 23.2059 11.4905 17.3481 17.3483C11.4903 23.2061 7.92881 29.142 9.39326 30.6065C10.8577 32.0709 16.7936 28.5094 22.6514 22.6516Z" stroke="white" stroke-width="2" stroke-miterlimit="10" stroke-linecap="round" stroke-linejoin="round"/>
</svg>
