<svg width="40" height="40" viewBox="0 0 40 40" fill="none" xmlns="http://www.w3.org/2000/svg">
<path d="M8.75 10H28.75C30.125 10 31.25 11.125 31.25 12.5V33.75C31.25 35.125 30.125 36.25 28.75 36.25H11.25C9.875 36.25 8.75 35.125 8.75 33.75V10Z" stroke="white" stroke-width="2" stroke-miterlimit="10" stroke-linecap="round" stroke-linejoin="round"/>
<path d="M23.375 24.125C21.5 24.125 20 22.625 20 20.75C20 19.5 20.75 18.375 21.875 17.75C21.25 17.625 20.625 17.5 20 17.5C17.25 17.5 15 19.75 15 22.5C15 25.25 17.25 27.5 20 27.5C22.25 27.5 24.25 25.875 24.75 23.75C24.375 24 23.875 24.125 23.375 24.125Z" stroke="white" stroke-width="2" stroke-miterlimit="10" stroke-linecap="round" stroke-linejoin="round"/>
<path d="M8.75 10L27.5 3.75V10" stroke="white" stroke-width="2" stroke-miterlimit="10" stroke-linecap="round" stroke-linejoin="round"/>
</svg>
