<svg width="16" height="14" viewBox="0 0 16 14" fill="none" xmlns="http://www.w3.org/2000/svg">
<path d="M16 1.54688C15.4 1.85625 14.8 1.95938 14.1 2.0625C14.8 1.65 15.3 1.03125 15.5 0.20625C14.9 0.61875 14.2 0.825 13.4 1.03125C12.8 0.4125 11.9 0 11 0C8.9 0 7.3 2.0625 7.8 4.125C5.1 4.02187 2.7 2.68125 1 0.61875C0.1 2.16563 0.6 4.125 2 5.15625C1.5 5.15625 1 4.95 0.5 4.74375C0.5 6.29063 1.6 7.73438 3.1 8.14688C2.6 8.25 2.1 8.35313 1.6 8.25C2 9.59062 3.2 10.6219 4.7 10.6219C3.5 11.55 1.7 12.0656 0 11.8594C1.5 12.7875 3.2 13.4062 5 13.4062C11.1 13.4062 14.5 8.14688 14.3 3.3C15 2.8875 15.6 2.26875 16 1.54688Z" fill="white"/>
</svg>
